<?xml version="1.0" standalone="no"?>
<!DOCTYPE svg PUBLIC "-//W3C//DTD SVG 20010904//EN"
 "http://www.w3.org/TR/2001/REC-SVG-20010904/DTD/svg10.dtd">
<svg version="1.0" xmlns="http://www.w3.org/2000/svg"
 width="320.000000pt" height="180.000000pt" viewBox="0 0 310.000000 180.000000"
 preserveAspectRatio="xMidYMid meet">

<g transform="translate(0.000000,180.000000) scale(0.100000,-0.100000)"
fill="#35495e" stroke="none">
<path d="M1403 1590 c-36 -15 -43 -43 -43 -179 l0 -130 -477 -3 c-527 -5 -533
-5 -663 -71 -75 -37 -122 -92 -145 -169 -22 -74 -22 -522 0 -596 23 -77 70
-132 145 -169 130 -66 150 -68 610 -68 364 0 423 2 484 18 129 33 215 90 259
172 22 39 22 48 25 601 3 559 3 560 -18 579 -24 22 -139 32 -177 15z m-45
-785 c2 -194 -1 -289 -9 -308 -15 -37 -52 -61 -124 -83 -53 -17 -98 -19 -395
-19 -379 0 -423 6 -487 70 l-33 33 0 240 0 240 25 30 c59 71 132 80 645 78
l375 -1 3 -280z"/>
</g>
<g transform="translate(0.000000,180.000000) scale(0.100000,-0.100000)"
fill="#42b883" stroke="none">
<path d="M1120 1268 c-137 -20 -234 -77 -276 -161 -22 -44 -26 -65 -26 -140 0
-99 12 -136 58 -189 33 -38 113 -81 183 -100 27 -7 190 -14 414 -19 382 -7
419 -11 462 -52 19 -18 23 -31 23 -85 0 -49 -4 -67 -19 -82 -42 -42 -74 -45
-594 -48 l-497 -4 -16 -25 c-22 -33 -15 -131 11 -150 15 -11 104 -14 454 -14
240 0 477 5 526 10 188 21 298 75 347 170 25 46 28 63 28 144 0 138 -41 210
-151 267 -89 45 -145 51 -534 58 -349 6 -372 7 -405 27 -45 26 -62 59 -56 107
10 87 47 100 309 105 207 4 208 4 224 28 21 33 14 132 -12 150 -22 16 -347 18
-453 3z"/>
</g>
</svg>
